<mxfile host="app.diagrams.net" agent="Mozilla/5.0 (Windows NT 10.0; Win64; x64) AppleWebKit/537.36 (KHTML, like Gecko) Chrome/137.0.0.0 Safari/537.36" version="27.1.6">
  <diagram name="Page-1" id="3x19Th-BcRJQB09NFwTe">
    <mxGraphModel dx="1779" dy="1730" grid="1" gridSize="10" guides="1" tooltips="1" connect="1" arrows="1" fold="1" page="1" pageScale="1" pageWidth="827" pageHeight="1169" math="0" shadow="0">
      <root>
        <mxCell id="0" />
        <mxCell id="1" parent="0" />
        <mxCell id="ii7suWTKe0dNaas8Gf4S-8" value="&lt;b&gt;Admin&lt;/b&gt;" style="shape=umlActor;verticalLabelPosition=bottom;verticalAlign=top;html=1;" vertex="1" parent="1">
          <mxGeometry x="340" y="360" width="30" height="60" as="geometry" />
        </mxCell>
        <mxCell id="ii7suWTKe0dNaas8Gf4S-40" style="edgeStyle=orthogonalEdgeStyle;rounded=0;orthogonalLoop=1;jettySize=auto;html=1;exitX=1;exitY=0.3333333333333333;exitDx=0;exitDy=0;exitPerimeter=0;entryX=0.5;entryY=1;entryDx=0;entryDy=0;" edge="1" parent="1" source="ii7suWTKe0dNaas8Gf4S-9" target="ii7suWTKe0dNaas8Gf4S-21">
          <mxGeometry relative="1" as="geometry" />
        </mxCell>
        <mxCell id="ii7suWTKe0dNaas8Gf4S-54" style="edgeStyle=orthogonalEdgeStyle;rounded=0;orthogonalLoop=1;jettySize=auto;html=1;exitX=0.75;exitY=0.1;exitDx=0;exitDy=0;exitPerimeter=0;" edge="1" parent="1" source="ii7suWTKe0dNaas8Gf4S-9">
          <mxGeometry relative="1" as="geometry">
            <mxPoint x="390" y="116" as="targetPoint" />
          </mxGeometry>
        </mxCell>
        <mxCell id="ii7suWTKe0dNaas8Gf4S-62" style="edgeStyle=orthogonalEdgeStyle;rounded=0;orthogonalLoop=1;jettySize=auto;html=1;exitX=1;exitY=0.3333333333333333;exitDx=0;exitDy=0;exitPerimeter=0;entryX=0;entryY=0;entryDx=0;entryDy=0;" edge="1" parent="1" source="ii7suWTKe0dNaas8Gf4S-9" target="ii7suWTKe0dNaas8Gf4S-20">
          <mxGeometry relative="1" as="geometry" />
        </mxCell>
        <mxCell id="ii7suWTKe0dNaas8Gf4S-9" value="&lt;span&gt;Guest&lt;/span&gt;" style="shape=umlActor;verticalLabelPosition=bottom;verticalAlign=top;html=1;fontStyle=1" vertex="1" parent="1">
          <mxGeometry x="-20" y="110" width="30" height="60" as="geometry" />
        </mxCell>
        <mxCell id="ii7suWTKe0dNaas8Gf4S-10" value="&lt;b&gt;Host&lt;/b&gt;" style="shape=umlActor;verticalLabelPosition=bottom;verticalAlign=top;html=1;" vertex="1" parent="1">
          <mxGeometry x="740" y="110" width="30" height="60" as="geometry" />
        </mxCell>
        <mxCell id="ii7suWTKe0dNaas8Gf4S-16" value="&lt;b&gt;&lt;font style=&quot;font-size: 24px;&quot;&gt;Airbnb Clone System&lt;/font&gt;&lt;/b&gt;&lt;div&gt;&lt;br&gt;&lt;/div&gt;&lt;div&gt;&lt;div&gt;&lt;b&gt;&lt;font style=&quot;font-size: 24px;&quot;&gt;&lt;br&gt;&lt;/font&gt;&lt;/b&gt;&lt;/div&gt;&lt;div&gt;&lt;b&gt;&lt;font style=&quot;font-size: 24px;&quot;&gt;&lt;br&gt;&lt;/font&gt;&lt;/b&gt;&lt;/div&gt;&lt;div&gt;&lt;b&gt;&lt;font style=&quot;font-size: 24px;&quot;&gt;&lt;br&gt;&lt;/font&gt;&lt;/b&gt;&lt;/div&gt;&lt;div&gt;&lt;b&gt;&lt;font style=&quot;font-size: 24px;&quot;&gt;&lt;br&gt;&lt;/font&gt;&lt;/b&gt;&lt;/div&gt;&lt;div&gt;&lt;b&gt;&lt;font style=&quot;font-size: 24px;&quot;&gt;&lt;br&gt;&lt;/font&gt;&lt;/b&gt;&lt;/div&gt;&lt;div&gt;&lt;b&gt;&lt;font style=&quot;font-size: 24px;&quot;&gt;&lt;br&gt;&lt;/font&gt;&lt;/b&gt;&lt;/div&gt;&lt;div&gt;&lt;b&gt;&lt;font style=&quot;font-size: 24px;&quot;&gt;&lt;br&gt;&lt;/font&gt;&lt;/b&gt;&lt;/div&gt;&lt;div&gt;&lt;b&gt;&lt;font style=&quot;font-size: 24px;&quot;&gt;&lt;br&gt;&lt;/font&gt;&lt;/b&gt;&lt;/div&gt;&lt;div&gt;&lt;b&gt;&lt;font style=&quot;font-size: 24px;&quot;&gt;&lt;br&gt;&lt;/font&gt;&lt;/b&gt;&lt;/div&gt;&lt;div&gt;&lt;b&gt;&lt;font style=&quot;font-size: 24px;&quot;&gt;&lt;br&gt;&lt;/font&gt;&lt;/b&gt;&lt;/div&gt;&lt;/div&gt;" style="rounded=1;whiteSpace=wrap;html=1;movable=1;resizable=1;rotatable=1;deletable=1;editable=1;locked=0;connectable=1;arcSize=13;" vertex="1" parent="1">
          <mxGeometry x="70" y="-20" width="620" height="360" as="geometry" />
        </mxCell>
        <mxCell id="ii7suWTKe0dNaas8Gf4S-13" value="&lt;b&gt;User Management&lt;/b&gt;" style="ellipse;whiteSpace=wrap;html=1;" vertex="1" parent="1">
          <mxGeometry x="330" y="140" width="130" height="70" as="geometry" />
        </mxCell>
        <mxCell id="ii7suWTKe0dNaas8Gf4S-18" value="&lt;b&gt;Booking management&lt;/b&gt;&lt;div&gt;&lt;b&gt;system&lt;/b&gt;&lt;/div&gt;" style="ellipse;whiteSpace=wrap;html=1;" vertex="1" parent="1">
          <mxGeometry x="140" y="40" width="140" height="70" as="geometry" />
        </mxCell>
        <mxCell id="ii7suWTKe0dNaas8Gf4S-19" value="&lt;b&gt;Notifications System&lt;/b&gt;" style="ellipse;whiteSpace=wrap;html=1;" vertex="1" parent="1">
          <mxGeometry x="200" y="240" width="140" height="70" as="geometry" />
        </mxCell>
        <mxCell id="ii7suWTKe0dNaas8Gf4S-20" value="&lt;b&gt;Payment Integration&lt;/b&gt;" style="ellipse;whiteSpace=wrap;html=1;" vertex="1" parent="1">
          <mxGeometry x="330" y="30" width="140" height="70" as="geometry" />
        </mxCell>
        <mxCell id="ii7suWTKe0dNaas8Gf4S-21" value="&lt;b&gt;Reviews and Ratings&lt;/b&gt;&lt;div&gt;&lt;b&gt;System&lt;/b&gt;&lt;/div&gt;" style="ellipse;whiteSpace=wrap;html=1;" vertex="1" parent="1">
          <mxGeometry x="520" y="30" width="118" height="70" as="geometry" />
        </mxCell>
        <mxCell id="ii7suWTKe0dNaas8Gf4S-22" value="&lt;b&gt;Admin Dashboard&lt;/b&gt;&lt;div&gt;&lt;b&gt;&amp;amp;&lt;/b&gt;&lt;/div&gt;&lt;div&gt;&lt;b&gt;Management&lt;/b&gt;&lt;/div&gt;" style="ellipse;whiteSpace=wrap;html=1;" vertex="1" parent="1">
          <mxGeometry x="443" y="240" width="140" height="70" as="geometry" />
        </mxCell>
        <mxCell id="ii7suWTKe0dNaas8Gf4S-27" value="&lt;b&gt;Property Listings&lt;/b&gt;&lt;div&gt;&lt;b&gt;Management&lt;/b&gt;&lt;/div&gt;" style="ellipse;whiteSpace=wrap;html=1;" vertex="1" parent="1">
          <mxGeometry x="120" y="140" width="140" height="70" as="geometry" />
        </mxCell>
        <mxCell id="ii7suWTKe0dNaas8Gf4S-28" value="&lt;b&gt;Search and Filtering&lt;/b&gt;" style="ellipse;whiteSpace=wrap;html=1;" vertex="1" parent="1">
          <mxGeometry x="498" y="140" width="140" height="70" as="geometry" />
        </mxCell>
        <mxCell id="ii7suWTKe0dNaas8Gf4S-38" style="edgeStyle=orthogonalEdgeStyle;rounded=0;orthogonalLoop=1;jettySize=auto;html=1;exitX=0.75;exitY=0.1;exitDx=0;exitDy=0;exitPerimeter=0;entryX=0.113;entryY=0.278;entryDx=0;entryDy=0;entryPerimeter=0;" edge="1" parent="1" source="ii7suWTKe0dNaas8Gf4S-9" target="ii7suWTKe0dNaas8Gf4S-16">
          <mxGeometry relative="1" as="geometry" />
        </mxCell>
        <mxCell id="ii7suWTKe0dNaas8Gf4S-41" style="edgeStyle=orthogonalEdgeStyle;rounded=0;orthogonalLoop=1;jettySize=auto;html=1;exitX=1;exitY=0.3333333333333333;exitDx=0;exitDy=0;exitPerimeter=0;entryX=0.415;entryY=0.9;entryDx=0;entryDy=0;entryPerimeter=0;" edge="1" parent="1" target="ii7suWTKe0dNaas8Gf4S-21">
          <mxGeometry relative="1" as="geometry">
            <mxPoint x="10" y="119" as="sourcePoint" />
            <mxPoint x="570" y="104" as="targetPoint" />
          </mxGeometry>
        </mxCell>
        <mxCell id="ii7suWTKe0dNaas8Gf4S-51" style="edgeStyle=orthogonalEdgeStyle;rounded=0;orthogonalLoop=1;jettySize=auto;html=1;exitX=0;exitY=1;exitDx=0;exitDy=0;exitPerimeter=0;entryX=0.401;entryY=1.009;entryDx=0;entryDy=0;entryPerimeter=0;" edge="1" parent="1" source="ii7suWTKe0dNaas8Gf4S-10" target="ii7suWTKe0dNaas8Gf4S-27">
          <mxGeometry relative="1" as="geometry" />
        </mxCell>
        <mxCell id="ii7suWTKe0dNaas8Gf4S-55" style="edgeStyle=orthogonalEdgeStyle;rounded=0;orthogonalLoop=1;jettySize=auto;html=1;exitX=1;exitY=0.3333333333333333;exitDx=0;exitDy=0;exitPerimeter=0;entryX=0.637;entryY=0.997;entryDx=0;entryDy=0;entryPerimeter=0;" edge="1" parent="1" source="ii7suWTKe0dNaas8Gf4S-8" target="ii7suWTKe0dNaas8Gf4S-22">
          <mxGeometry relative="1" as="geometry" />
        </mxCell>
        <mxCell id="ii7suWTKe0dNaas8Gf4S-56" style="edgeStyle=orthogonalEdgeStyle;rounded=0;orthogonalLoop=1;jettySize=auto;html=1;exitX=0.25;exitY=0.1;exitDx=0;exitDy=0;exitPerimeter=0;" edge="1" parent="1" source="ii7suWTKe0dNaas8Gf4S-8" target="ii7suWTKe0dNaas8Gf4S-27">
          <mxGeometry relative="1" as="geometry" />
        </mxCell>
        <mxCell id="ii7suWTKe0dNaas8Gf4S-63" style="edgeStyle=orthogonalEdgeStyle;rounded=0;orthogonalLoop=1;jettySize=auto;html=1;exitX=1;exitY=0.3333333333333333;exitDx=0;exitDy=0;exitPerimeter=0;entryX=0.452;entryY=0.167;entryDx=0;entryDy=0;entryPerimeter=0;" edge="1" parent="1" source="ii7suWTKe0dNaas8Gf4S-9" target="ii7suWTKe0dNaas8Gf4S-16">
          <mxGeometry relative="1" as="geometry" />
        </mxCell>
        <mxCell id="ii7suWTKe0dNaas8Gf4S-33" style="edgeStyle=orthogonalEdgeStyle;rounded=0;orthogonalLoop=1;jettySize=auto;html=1;exitX=1;exitY=0.3333333333333333;exitDx=0;exitDy=0;exitPerimeter=0;entryX=0.386;entryY=0.003;entryDx=0;entryDy=0;entryPerimeter=0;" edge="1" parent="1" source="ii7suWTKe0dNaas8Gf4S-9" target="ii7suWTKe0dNaas8Gf4S-13">
          <mxGeometry relative="1" as="geometry" />
        </mxCell>
        <mxCell id="ii7suWTKe0dNaas8Gf4S-64" style="edgeStyle=orthogonalEdgeStyle;rounded=0;orthogonalLoop=1;jettySize=auto;html=1;exitX=0.5;exitY=0.5;exitDx=0;exitDy=0;exitPerimeter=0;entryX=0;entryY=0;entryDx=0;entryDy=0;" edge="1" parent="1" source="ii7suWTKe0dNaas8Gf4S-9" target="ii7suWTKe0dNaas8Gf4S-28">
          <mxGeometry relative="1" as="geometry">
            <Array as="points">
              <mxPoint x="254" y="140" />
              <mxPoint x="254" y="130" />
              <mxPoint x="519" y="130" />
            </Array>
          </mxGeometry>
        </mxCell>
        <mxCell id="ii7suWTKe0dNaas8Gf4S-66" style="edgeStyle=orthogonalEdgeStyle;rounded=0;orthogonalLoop=1;jettySize=auto;html=1;exitX=0.5;exitY=0;exitDx=0;exitDy=0;exitPerimeter=0;entryX=1;entryY=0;entryDx=0;entryDy=0;" edge="1" parent="1" source="ii7suWTKe0dNaas8Gf4S-10" target="ii7suWTKe0dNaas8Gf4S-18">
          <mxGeometry relative="1" as="geometry">
            <Array as="points">
              <mxPoint x="755" y="30" />
              <mxPoint x="260" y="30" />
            </Array>
          </mxGeometry>
        </mxCell>
        <mxCell id="ii7suWTKe0dNaas8Gf4S-67" style="edgeStyle=orthogonalEdgeStyle;rounded=0;orthogonalLoop=1;jettySize=auto;html=1;exitX=0;exitY=0.3333333333333333;exitDx=0;exitDy=0;exitPerimeter=0;entryX=1;entryY=0.5;entryDx=0;entryDy=0;" edge="1" parent="1" source="ii7suWTKe0dNaas8Gf4S-10" target="ii7suWTKe0dNaas8Gf4S-21">
          <mxGeometry relative="1" as="geometry" />
        </mxCell>
        <mxCell id="ii7suWTKe0dNaas8Gf4S-68" style="edgeStyle=orthogonalEdgeStyle;rounded=0;orthogonalLoop=1;jettySize=auto;html=1;exitX=0.5;exitY=0;exitDx=0;exitDy=0;exitPerimeter=0;entryX=0.306;entryY=0.906;entryDx=0;entryDy=0;entryPerimeter=0;" edge="1" parent="1" source="ii7suWTKe0dNaas8Gf4S-8" target="ii7suWTKe0dNaas8Gf4S-13">
          <mxGeometry relative="1" as="geometry" />
        </mxCell>
        <mxCell id="ii7suWTKe0dNaas8Gf4S-69" style="edgeStyle=orthogonalEdgeStyle;rounded=0;orthogonalLoop=1;jettySize=auto;html=1;exitX=0.5;exitY=0;exitDx=0;exitDy=0;exitPerimeter=0;entryX=1;entryY=1;entryDx=0;entryDy=0;" edge="1" parent="1" source="ii7suWTKe0dNaas8Gf4S-8" target="ii7suWTKe0dNaas8Gf4S-18">
          <mxGeometry relative="1" as="geometry">
            <Array as="points">
              <mxPoint x="355" y="220" />
              <mxPoint x="260" y="220" />
            </Array>
          </mxGeometry>
        </mxCell>
        <mxCell id="ii7suWTKe0dNaas8Gf4S-70" style="edgeStyle=orthogonalEdgeStyle;rounded=0;orthogonalLoop=1;jettySize=auto;html=1;exitX=0.75;exitY=0.1;exitDx=0;exitDy=0;exitPerimeter=0;entryX=0.993;entryY=0.614;entryDx=0;entryDy=0;entryPerimeter=0;fontStyle=1" edge="1" parent="1" source="ii7suWTKe0dNaas8Gf4S-8" target="ii7suWTKe0dNaas8Gf4S-20">
          <mxGeometry relative="1" as="geometry">
            <Array as="points">
              <mxPoint x="363" y="220" />
              <mxPoint x="490" y="220" />
              <mxPoint x="490" y="73" />
            </Array>
          </mxGeometry>
        </mxCell>
        <mxCell id="ii7suWTKe0dNaas8Gf4S-71" style="edgeStyle=orthogonalEdgeStyle;rounded=0;orthogonalLoop=1;jettySize=auto;html=1;exitX=0;exitY=0.3333333333333333;exitDx=0;exitDy=0;exitPerimeter=0;entryX=0.31;entryY=0.883;entryDx=0;entryDy=0;entryPerimeter=0;" edge="1" parent="1" source="ii7suWTKe0dNaas8Gf4S-8" target="ii7suWTKe0dNaas8Gf4S-19">
          <mxGeometry relative="1" as="geometry" />
        </mxCell>
      </root>
    </mxGraphModel>
  </diagram>
</mxfile>
